<svg id="Capa_1" data-name="Capa 1" xmlns="http://www.w3.org/2000/svg" viewBox="0 0 441.72 82.74"><defs><style>.cls-1{fill:#949ba7;}</style></defs><path class="cls-1" d="M110.47,47,96.7,16.25h0c0-.09-.09-.19-.15-.29l-.06-.07a1.63,1.63,0,0,0-.17-.2l-.09-.09L96,15.42H96a1.17,1.17,0,0,0-.31-.17h-.1l-.25-.08h-.11a1.15,1.15,0,0,0-.37,0H70.48A6.51,6.51,0,0,0,68.2,12v-3a2.08,2.08,0,0,0-2.08-2.08H62.24a2.08,2.08,0,0,0-2.08,2.08h0V12A6.51,6.51,0,0,0,58,15.17H33.09l-.25.08h-.1a1.34,1.34,0,0,0-.31.17h-.06l-.27.12-.07.09a.91.91,0,0,0-.18.21v.06a3.07,3.07,0,0,0-.17.31h0L17.86,47a2.09,2.09,0,0,0-.38,1.21,16.11,16.11,0,1,0,32.22,0h0A2.1,2.1,0,0,0,49.33,47L36.79,19.17H58a6.51,6.51,0,0,0,2.16,3V74.34H41.77a2.09,2.09,0,0,0-1.85,1.13L34.21,86.56a2,2,0,0,0,.07,2,2.07,2.07,0,0,0,1.77,1H92.41a2.08,2.08,0,0,0,2.08-2.08h0a2,2,0,0,0-.31-1.11L88.54,75.53a2.07,2.07,0,0,0-1.85-1.13H68.2V22.25a6.67,6.67,0,0,0,2.23-3.08H91.57L78.89,47.43h0v.06a1.4,1.4,0,0,0-.09.29v.09a1,1,0,0,0,0,.35h0a16.11,16.11,0,0,0,32.21,0A2,2,0,0,0,110.47,47Zm-66.11-.79H22.8l10.78-24ZM66.64,17a2.42,2.42,0,1,1-2.42-2.42A2.42,2.42,0,0,1,66.64,17v0ZM84.06,46.2l10.78-24,10.78,24Z" transform="translate(-17.48 -6.85)"/><path class="cls-1" d="M137.91,37.71h-7v-.83a7.89,7.89,0,0,0,1.52-.24c.41-.12.62-.27.62-.44V36a.4.4,0,0,0-.07-.28l-1.39-3.74h-5.88c-.23.54-.39,1-.54,1.43l-.37,1.13a5.93,5.93,0,0,0-.21.83,2.31,2.31,0,0,0-.06.52c0,.32.24.56.74.73a5.94,5.94,0,0,0,1.68.31v.83h-6.31v-.83a6.53,6.53,0,0,0,.77-.14,2.72,2.72,0,0,0,.75-.29,3.42,3.42,0,0,0,.74-.68,4.42,4.42,0,0,0,.51-1q1.2-3.15,2.78-7.08l2.71-7h.95l5.58,14.44a3.4,3.4,0,0,0,.4.75,2.73,2.73,0,0,0,.63.54,2.14,2.14,0,0,0,.7.28,3.6,3.6,0,0,0,.73.13Zm-6.72-6.83-2.54-6.51-2.49,6.51Z" transform="translate(-17.48 -6.85)"/><path class="cls-1" d="M154.55,29.44a8,8,0,0,1-.81,3.71,7.41,7.41,0,0,1-2.08,2.57,9.1,9.1,0,0,1-2.92,1.5,11.12,11.12,0,0,1-3.34.49h-7v-.83a6.82,6.82,0,0,0,.9-.07,2.26,2.26,0,0,0,.72-.15,1,1,0,0,0,.51-.46,1.49,1.49,0,0,0,.16-.72V23.4a2,2,0,0,0-.14-.72,1,1,0,0,0-.53-.51,3.12,3.12,0,0,0-.8-.26,5.93,5.93,0,0,0-.72-.1V21h7.25a9.66,9.66,0,0,1,3,.47,8.66,8.66,0,0,1,2.55,1.21,7.24,7.24,0,0,1,2.32,2.74A9,9,0,0,1,154.55,29.44Zm-2.89,0a9.56,9.56,0,0,0-.46-3.05A6.72,6.72,0,0,0,149.9,24a5.87,5.87,0,0,0-2-1.53,6.32,6.32,0,0,0-2.64-.55h-2v13a1.66,1.66,0,0,0,.63,1.49,3.48,3.48,0,0,0,1.92.41,6.1,6.1,0,0,0,2.63-.53,4.71,4.71,0,0,0,1.81-1.47,6.54,6.54,0,0,0,1.07-2.3,12.35,12.35,0,0,0,.34-3Z" transform="translate(-17.48 -6.85)"/><path class="cls-1" d="M172.06,21.81a3.59,3.59,0,0,0-1.46.44,1.84,1.84,0,0,0-.64.63,5.87,5.87,0,0,0-.49.93c-.52,1.2-1.31,3.19-2.41,5.84s-2.14,5.41-3.27,8.28h-1l-3.28-8.81c-1-2.82-1.78-4.73-2.15-5.72a2.61,2.61,0,0,0-.37-.65,2.57,2.57,0,0,0-.63-.51,2.31,2.31,0,0,0-.7-.31,4.45,4.45,0,0,0-.73-.12V21h6.93v.84a9.31,9.31,0,0,0-1.49.17c-.41.09-.62.24-.62.46a1.6,1.6,0,0,0,0,.31l.09.28,1.41,3.77,2.79,7.46q.88-2.19,2.07-5.17c.78-2,1.3-3.34,1.57-4.09a9.7,9.7,0,0,0,.45-1.48,5.08,5.08,0,0,0,.07-.67.57.57,0,0,0-.24-.46,2.29,2.29,0,0,0-.65-.31c-.26-.07-.52-.13-.79-.18l-.81-.09V21H172Z" transform="translate(-17.48 -6.85)"/><path class="cls-1" d="M186.25,23A8.05,8.05,0,0,1,188,25.74a9.76,9.76,0,0,1,.63,3.62A9.4,9.4,0,0,1,188,33a8.11,8.11,0,0,1-1.76,2.78,7.57,7.57,0,0,1-2.55,1.74,8.12,8.12,0,0,1-6.32,0,7.19,7.19,0,0,1-2.54-1.82,8.25,8.25,0,0,1-1.68-2.78,10.13,10.13,0,0,1-.6-3.49,9.79,9.79,0,0,1,.64-3.63A8.85,8.85,0,0,1,174.9,23a8,8,0,0,1,8.8-1.75A7.61,7.61,0,0,1,186.25,23Zm-1.77,11.92a8,8,0,0,0,1-2.41,14.09,14.09,0,0,0,.3-3,13.5,13.5,0,0,0-.34-3.17,8,8,0,0,0-1-2.42,4.54,4.54,0,0,0-1.63-1.57,4.38,4.38,0,0,0-2.24-.55,4.28,4.28,0,0,0-2.42.65,5,5,0,0,0-1.62,1.73,8.61,8.61,0,0,0-.88,2.41,13.82,13.82,0,0,0-.28,2.94,14.4,14.4,0,0,0,.3,3.07,7.68,7.68,0,0,0,1,2.42,4.57,4.57,0,0,0,1.6,1.61,4.81,4.81,0,0,0,4.6,0A4.44,4.44,0,0,0,184.48,34.87Z" transform="translate(-17.48 -6.85)"/><path class="cls-1" d="M207,37.71h-4.7a49,49,0,0,0-3-4.16q-1.65-2.07-3.48-4h-.3v5.84a1.5,1.5,0,0,0,.14.69,1.1,1.1,0,0,0,.53.49,4.65,4.65,0,0,0,.7.21,6.38,6.38,0,0,0,.86.13v.83h-6.95v-.83l.79-.07a3.14,3.14,0,0,0,.74-.15.9.9,0,0,0,.5-.46,1.39,1.39,0,0,0,.17-.72V23.4a1.47,1.47,0,0,0-.14-.69,1,1,0,0,0-.53-.49,5.29,5.29,0,0,0-.76-.27,4,4,0,0,0-.77-.14V21h6.9v.84a6.56,6.56,0,0,0-1.55.28.89.89,0,0,0-.55.47,1.82,1.82,0,0,0-.13.73v5.77h.23c.71-.59,1.4-1.21,2.09-1.87s1.27-1.26,1.86-1.93A20.54,20.54,0,0,0,201,23.54a2.13,2.13,0,0,0,.44-1.21.34.34,0,0,0-.22-.28,2.23,2.23,0,0,0-.51-.19,3.81,3.81,0,0,0-.59-.08h-.42v-.85h6.28v.85h-.42a1,1,0,0,0-.34,0l-.42.08a4.38,4.38,0,0,0-.86.3,2.65,2.65,0,0,0-.72.52l-2.53,2.85c-.88,1-1.75,1.89-2.62,2.7,1.21,1.35,2.19,2.51,3,3.49l2.5,3.12a5.79,5.79,0,0,0,1,1,5.61,5.61,0,0,0,.87.56,2.89,2.89,0,0,0,.77.25c.3,0,.55.08.76.09Z" transform="translate(-17.48 -6.85)"/><path class="cls-1" d="M223.1,37.71h-7v-.83a7.65,7.65,0,0,0,1.52-.24c.42-.12.61-.27.61-.44V36a.4.4,0,0,0-.07-.28l-1.39-3.74H211c-.22.54-.4,1-.54,1.43s-.26.79-.37,1.13-.15.55-.21.83a2.31,2.31,0,0,0-.06.52c0,.32.25.56.74.73a6,6,0,0,0,1.68.31v.83h-6.31v-.83a6.36,6.36,0,0,0,.76-.14,3,3,0,0,0,.77-.29,2.91,2.91,0,0,0,.72-.68,3.4,3.4,0,0,0,.51-1q1.26-3.15,2.79-7.08l2.72-7h.94l5.52,14.44a2.71,2.71,0,0,0,.4.75,2.51,2.51,0,0,0,.63.54,2.23,2.23,0,0,0,.7.28,3.7,3.7,0,0,0,.74.13Zm-6.74-6.83-2.54-6.51-2.5,6.51Z" transform="translate(-17.48 -6.85)"/><path class="cls-1" d="M237.31,25.51h-.81a5,5,0,0,0-.38-1,8.54,8.54,0,0,0-.62-1.11,5.43,5.43,0,0,0-.77-.95,1.56,1.56,0,0,0-.81-.47l-.93-.07h-1.72v13.4a1.58,1.58,0,0,0,.17.71,1,1,0,0,0,.58.5,6.84,6.84,0,0,0,.89.23,7.53,7.53,0,0,0,1.06.16v.83h-7.91v-.83l1-.1a3.81,3.81,0,0,0,.94-.18,1.12,1.12,0,0,0,.57-.44,1.46,1.46,0,0,0,.18-.77V21.88h-1.58a4.35,4.35,0,0,0-1,.08,1.43,1.43,0,0,0-.81.47,6.38,6.38,0,0,0-.78.94,7.88,7.88,0,0,0-.63,1.14,7.63,7.63,0,0,0-.37,1h-.83V20.94h14.59Z" transform="translate(-17.48 -6.85)"/><path class="cls-1" d="M249.07,30a4.19,4.19,0,0,1,.79,1.29,5.06,5.06,0,0,1,.25,1.64,4.63,4.63,0,0,1-1.64,3.62A5.91,5.91,0,0,1,244.39,38a7.68,7.68,0,0,1-2.23-.34,9,9,0,0,1-1.93-.85l-.51.86h-1L238.57,32h1a12.91,12.91,0,0,0,.69,1.92,6.84,6.84,0,0,0,1.06,1.6,4.52,4.52,0,0,0,1.42,1.11,4.09,4.09,0,0,0,1.91.41,4.62,4.62,0,0,0,1.43-.2,2.42,2.42,0,0,0,1.54-1.53,3.5,3.5,0,0,0,.18-1.2,3.4,3.4,0,0,0-.56-1.88,3.56,3.56,0,0,0-1.7-1.31l-1.75-.68c-.66-.26-1.21-.48-1.71-.7a5.5,5.5,0,0,1-2.2-1.67,4.32,4.32,0,0,1-.79-2.69,4.24,4.24,0,0,1,.39-1.79,4.88,4.88,0,0,1,1.11-1.48,5.2,5.2,0,0,1,1.62-.95,5.59,5.59,0,0,1,1.94-.35,5.81,5.81,0,0,1,2.07.35,9.62,9.62,0,0,1,1.67.83l.49-.81h.95l.08,5.56h-1c-.17-.62-.36-1.23-.58-1.82a6.41,6.41,0,0,0-.85-1.59A3.8,3.8,0,0,0,245.77,22a3.62,3.62,0,0,0-1.8-.42,2.77,2.77,0,0,0-1.91.73,2.23,2.23,0,0,0-.78,1.75,3,3,0,0,0,.5,1.8,3.63,3.63,0,0,0,1.48,1.21,14.72,14.72,0,0,0,1.69.71c.56.21,1.09.43,1.61.64a13.49,13.49,0,0,1,1.36.71A5.58,5.58,0,0,1,249.07,30Z" transform="translate(-17.48 -6.85)"/><path class="cls-1" d="M268.47,37.71h-4.7a49.65,49.65,0,0,0-3-4.16c-1.09-1.38-2.25-2.72-3.46-4H257v5.84a1.66,1.66,0,0,0,.16.69,1.06,1.06,0,0,0,.53.49,4.33,4.33,0,0,0,.7.21,6.15,6.15,0,0,0,.86.13v.83h-6.95v-.83l.79-.07a3,3,0,0,0,.73-.15,1,1,0,0,0,.51-.46,1.38,1.38,0,0,0,.16-.72V23.4a1.6,1.6,0,0,0-.13-.69,1.07,1.07,0,0,0-.54-.49A4.89,4.89,0,0,0,253,22a3.91,3.91,0,0,0-.76-.14V21h6.95v.84a4.48,4.48,0,0,0-.82.1,4.7,4.7,0,0,0-.74.18.84.84,0,0,0-.54.47,1.83,1.83,0,0,0-.15.73v5.77h.24c.72-.59,1.41-1.21,2.09-1.87s1.31-1.29,1.87-1.93a20.54,20.54,0,0,0,1.36-1.72,2.13,2.13,0,0,0,.44-1.21c0-.11-.09-.2-.23-.28a2.34,2.34,0,0,0-.5-.19,3.81,3.81,0,0,0-.59-.08h-.42v-.85h6.28v.85h-.44a.86.86,0,0,0-.32,0l-.42.08a4.17,4.17,0,0,0-.86.3,2.7,2.7,0,0,0-.73.52c-.81.92-1.65,1.88-2.54,2.85a35,35,0,0,1-2.61,2.7c1.21,1.35,2.19,2.51,3,3.49l2.5,3.12a5.73,5.73,0,0,0,1,1,6.13,6.13,0,0,0,.87.56,3,3,0,0,0,.76.25c.32,0,.57.08.78.09Z" transform="translate(-17.48 -6.85)"/><path class="cls-1" d="M284.66,37.71h-7v-.83a7.89,7.89,0,0,0,1.52-.24c.41-.12.61-.27.61-.44a1,1,0,0,0,0-.25l-.06-.28-1.39-3.74h-5.89c-.22.54-.4,1-.53,1.43s-.27.79-.37,1.13-.17.61-.22.83a2.31,2.31,0,0,0-.06.52c0,.32.25.56.75.73a5.94,5.94,0,0,0,1.68.31v.83h-6.31v-.83a6.36,6.36,0,0,0,.76-.14,2.91,2.91,0,0,0,.76-.29,3,3,0,0,0,.73-.68,3.68,3.68,0,0,0,.53-.9q1.26-3.15,2.79-7.08l2.71-7h.95l5.57,14.44a3,3,0,0,0,.41.75,2.68,2.68,0,0,0,.62.54,2.29,2.29,0,0,0,.71.28,3.1,3.1,0,0,0,.74.13Zm-6.74-6.83-2.54-6.51-2.5,6.51Z" transform="translate(-17.48 -6.85)"/><path class="cls-1" d="M307.28,37.71h-4.69a47.39,47.39,0,0,0-3-4.16c-1.1-1.38-2.25-2.72-3.47-4h-.31v5.84a1.4,1.4,0,0,0,.16.69,1,1,0,0,0,.53.49,4,4,0,0,0,.7.21,6.15,6.15,0,0,0,.86.13v.83h-7v-.83l.78-.07a3.14,3.14,0,0,0,.74-.15,1,1,0,0,0,.51-.46,1.38,1.38,0,0,0,.15-.72V23.4a1.47,1.47,0,0,0-.13-.69,1,1,0,0,0-.53-.49,5.29,5.29,0,0,0-.76-.27,4.06,4.06,0,0,0-.76-.14V21h7v.84a6.52,6.52,0,0,0-1.56.28.89.89,0,0,0-.55.47,1.67,1.67,0,0,0-.14.73v5.77H296c.7-.59,1.4-1.21,2.09-1.87s1.31-1.29,1.86-1.93a21.46,21.46,0,0,0,1.37-1.72,2.11,2.11,0,0,0,.42-1.21.34.34,0,0,0-.22-.28,2.08,2.08,0,0,0-.49-.19,4.11,4.11,0,0,0-.6-.08H300v-.85h6.27v.85h-.42a.92.92,0,0,0-.33,0l-.42.08a4.62,4.62,0,0,0-.86.3,2.65,2.65,0,0,0-.72.52c-.81.92-1.66,1.88-2.54,2.85s-1.75,1.89-2.61,2.7c1.21,1.35,2.19,2.51,3,3.49l2.5,3.12a5.47,5.47,0,0,0,1,1,5.61,5.61,0,0,0,.87.56,2.83,2.83,0,0,0,.76.25c.31,0,.57.08.76.09Z" transform="translate(-17.48 -6.85)"/><path class="cls-1" d="M323.42,37.71h-7v-.83a8,8,0,0,0,1.54-.24c.4-.12.6-.27.6-.44a1,1,0,0,0,0-.25.89.89,0,0,0-.07-.28l-1.38-3.74h-5.91c-.21.54-.4,1-.53,1.43s-.26.79-.37,1.13a6,6,0,0,0-.22.83,4.6,4.6,0,0,0-.06.52c0,.32.25.56.75.73a6,6,0,0,0,1.68.31v.83h-6.31v-.83a6.36,6.36,0,0,0,.76-.14,2.78,2.78,0,0,0,.76-.29,3,3,0,0,0,.73-.68,4,4,0,0,0,.51-1q1.26-3.15,2.79-7.08l2.7-7h.95l5.53,14.44a3,3,0,0,0,.41.75,2.68,2.68,0,0,0,.62.54,2.29,2.29,0,0,0,.71.28,3.6,3.6,0,0,0,.73.13Zm-6.73-6.83-2.53-6.51-2.51,6.51Z" transform="translate(-17.48 -6.85)"/><path class="cls-1" d="M341.21,21.81a4.37,4.37,0,0,0-1,.18,3.33,3.33,0,0,0-1,.38,1.63,1.63,0,0,0-.57,1.12,12.72,12.72,0,0,0-.15,2.13V37.88h-1l-10.15-13.7v8.64a10.3,10.3,0,0,0,.18,2.22,2.08,2.08,0,0,0,.55,1.12,2.91,2.91,0,0,0,1.13.48,7.21,7.21,0,0,0,1.12.24v.83h-6.87v-.83a7.84,7.84,0,0,0,1.07-.23,2.84,2.84,0,0,0,.94-.37,1.64,1.64,0,0,0,.57-1,11.23,11.23,0,0,0,.16-2.32V24.7a3.38,3.38,0,0,0-.19-1.09,1.93,1.93,0,0,0-.51-.83,3.51,3.51,0,0,0-1.15-.67,3.84,3.84,0,0,0-1.21-.3V21H328l9.41,12.77v-8a10,10,0,0,0-.19-2.25,1.77,1.77,0,0,0-.55-1.05,4.16,4.16,0,0,0-1.07-.44,5.49,5.49,0,0,0-1.14-.23V21h6.8Z" transform="translate(-17.48 -6.85)"/><path class="cls-1" d="M349.91,38.11a6.88,6.88,0,0,1-2.86-.59,7.3,7.3,0,0,1-2.42-1.69A8.29,8.29,0,0,1,343,33.11a9.55,9.55,0,0,1-.62-3.62,10.18,10.18,0,0,1,.61-3.63A8.45,8.45,0,0,1,344.64,23a7.59,7.59,0,0,1,2.54-1.8,8,8,0,0,1,3.12-.64,7.46,7.46,0,0,1,2.25.31,8,8,0,0,1,1.91.87l.48-.81h.94l.11,6h-1a14.1,14.1,0,0,0-.56-1.89,7.66,7.66,0,0,0-.89-1.73,4.32,4.32,0,0,0-1.34-1.21,3.49,3.49,0,0,0-1.79-.46,4.57,4.57,0,0,0-2.12.51,4.84,4.84,0,0,0-1.71,1.5,7.09,7.09,0,0,0-1.06,2.42,12.64,12.64,0,0,0-.4,3.3,10.2,10.2,0,0,0,.41,2.95,7.39,7.39,0,0,0,1.21,2.35,5.61,5.61,0,0,0,1.79,1.57,5.08,5.08,0,0,0,4.06.27,5.08,5.08,0,0,0,1.39-.8,5.74,5.74,0,0,0,1-1.21,5.88,5.88,0,0,0,.72-1.44l.9.43a7.33,7.33,0,0,1-2.7,3.62A7.21,7.21,0,0,1,349.91,38.11Z" transform="translate(-17.48 -6.85)"/><path class="cls-1" d="M372.17,32.78l-.33,4.93H358v-.83a3.28,3.28,0,0,0,.94-.11,2.46,2.46,0,0,0,.76-.16,1,1,0,0,0,.53-.45,1.51,1.51,0,0,0,.15-.72V23.36a1.63,1.63,0,0,0-.13-.69,1,1,0,0,0-.55-.48,3.61,3.61,0,0,0-.84-.28,6.38,6.38,0,0,0-.86-.13v-.85H370.9v4H370a5.25,5.25,0,0,0-1-1.9A2.44,2.44,0,0,0,367.51,22l-.87-.08h-3.8v6.66h1.89a3.53,3.53,0,0,0,1.33-.17,1.75,1.75,0,0,0,.73-.56,2.72,2.72,0,0,0,.45-.92,5,5,0,0,0,.24-1.08h.88v6.56h-.88a5.45,5.45,0,0,0-.25-1.2,2.74,2.74,0,0,0-.44-.91,1.63,1.63,0,0,0-.83-.61,4.45,4.45,0,0,0-1.21-.14h-1.91v5a5.36,5.36,0,0,0,.11,1.2,1.18,1.18,0,0,0,.41.67,1.92,1.92,0,0,0,.84.29c.36,0,.85.06,1.51.06h1a9.73,9.73,0,0,0,1.08,0,6.07,6.07,0,0,0,.93-.17,1.46,1.46,0,0,0,.68-.34,7.8,7.8,0,0,0,1.13-1.71,10.76,10.76,0,0,0,.76-1.7Z" transform="translate(-17.48 -6.85)"/><path class="cls-1" d="M387.37,32.74l-.36,5H373.87v-.83l.83-.08a2.88,2.88,0,0,0,.75-.16,1,1,0,0,0,.52-.45,1.74,1.74,0,0,0,.15-.75v-12a1.89,1.89,0,0,0-.13-.7,1.07,1.07,0,0,0-.54-.49,3.55,3.55,0,0,0-.77-.28,3.63,3.63,0,0,0-.81-.16V21h7.07v.84a6.18,6.18,0,0,0-.85.11,6.66,6.66,0,0,0-.77.19.87.87,0,0,0-.54.49,1.67,1.67,0,0,0-.14.73V34.57a7,7,0,0,0,.07,1.21,1.06,1.06,0,0,0,.36.68,1.56,1.56,0,0,0,.81.26,12.56,12.56,0,0,0,1.5.08h.92a8.65,8.65,0,0,0,.89-.1,5,5,0,0,0,.76-.19,1.14,1.14,0,0,0,.51-.32,9.51,9.51,0,0,0,1.12-1.64,10.34,10.34,0,0,0,.9-1.79Z" transform="translate(-17.48 -6.85)"/><path class="cls-1" d="M404.07,37.71h-7v-.83a8.09,8.09,0,0,0,1.54-.24c.4-.12.6-.27.6-.44a1,1,0,0,0,0-.25.89.89,0,0,0-.07-.28l-1.39-3.74h-5.87c-.22.54-.4,1-.54,1.43s-.26.79-.37,1.13a7.79,7.79,0,0,0-.22.83,4.6,4.6,0,0,0-.06.52c0,.32.26.56.75.73a5.94,5.94,0,0,0,1.67.31v.83h-6.3v-.83a6.36,6.36,0,0,0,.76-.14,3,3,0,0,0,.77-.29,2.91,2.91,0,0,0,.72-.68,4.42,4.42,0,0,0,.51-1q1.26-3.15,2.79-7.08l2.71-7h.94l5.58,14.44a3.87,3.87,0,0,0,.4.75,2.73,2.73,0,0,0,.63.54,2.29,2.29,0,0,0,.71.28,3.6,3.6,0,0,0,.73.13Zm-6.73-6.83-2.54-6.51-2.5,6.51Z" transform="translate(-17.48 -6.85)"/><path class="cls-1" d="M421,37.71h-4.51c-1-1.57-1.91-2.91-2.7-4.06s-1.68-2.32-2.63-3.52h-1.71v5.31a1.81,1.81,0,0,0,.12.73.92.92,0,0,0,.55.47,4,4,0,0,0,.75.16c.35,0,.66.07.9.08v.83h-7.08v-.83l.82-.08a2.79,2.79,0,0,0,.75-.16,1,1,0,0,0,.51-.45,1.61,1.61,0,0,0,.16-.75V23.36a2.34,2.34,0,0,0-.12-.74.85.85,0,0,0-.55-.48,4,4,0,0,0-.78-.19,5.36,5.36,0,0,0-.79-.11V21h7.73a8.86,8.86,0,0,1,2,.22,5.3,5.3,0,0,1,1.68.7,3.5,3.5,0,0,1,1.21,1.21,3.54,3.54,0,0,1,.44,1.83,4.79,4.79,0,0,1-.29,1.72,3.88,3.88,0,0,1-.87,1.28,5.12,5.12,0,0,1-1.28.88,8.25,8.25,0,0,1-1.65.63c.84,1.1,1.53,2,2.07,2.77s1.21,1.65,2,2.72a5.2,5.2,0,0,0,.94,1,4.92,4.92,0,0,0,.83.54,2.59,2.59,0,0,0,.76.24c.32,0,.57.09.78.1Zm-6.21-12.5a3.06,3.06,0,0,0-2.79-3.3,2.53,2.53,0,0,0-.55,0h-2v7.18H411a3.63,3.63,0,0,0,3.8-3.45A3.09,3.09,0,0,0,414.78,25.21Z" transform="translate(-17.48 -6.85)"/><path class="cls-1" d="M429,37.71h-7.54v-.83l.92-.07a3.53,3.53,0,0,0,.85-.15,1.09,1.09,0,0,0,.57-.42,1.36,1.36,0,0,0,.18-.74V23.42a1.64,1.64,0,0,0-.14-.69,1,1,0,0,0-.61-.46,5.54,5.54,0,0,0-.88-.26,4.48,4.48,0,0,0-.89-.15V21H429v.85a6.42,6.42,0,0,0-.87.09,4.55,4.55,0,0,0-.89.19.91.91,0,0,0-.59.46,1.45,1.45,0,0,0-.16.71V35.39a1.5,1.5,0,0,0,.17.69,1.16,1.16,0,0,0,.58.47,3.71,3.71,0,0,0,.81.21,5.05,5.05,0,0,0,.95.13Z" transform="translate(-17.48 -6.85)"/><path class="cls-1" d="M441.75,21.81a5.58,5.58,0,0,0-.81.09,4,4,0,0,0-.83.19.89.89,0,0,0-.55.47,1.83,1.83,0,0,0-.14.73v9.92a4.93,4.93,0,0,1-.32,1.65,4.61,4.61,0,0,1-.91,1.56,4.93,4.93,0,0,1-1.66,1.21,5.19,5.19,0,0,1-2.2.45A4.51,4.51,0,0,1,431.21,37,3.76,3.76,0,0,1,430,34.09a2.6,2.6,0,0,1,.42-1.43,1.34,1.34,0,0,1,1.2-.61,1.58,1.58,0,0,1,1.14.4,1.34,1.34,0,0,1,.42,1,2.22,2.22,0,0,1-.14.76,4.17,4.17,0,0,1-.35.66l-.4.64a3.18,3.18,0,0,0-.32.67,2.36,2.36,0,0,0,.78.69,2.94,2.94,0,0,0,1.4.29,2.35,2.35,0,0,0,1.41-.4,2.41,2.41,0,0,0,.83-1.06,6,6,0,0,0,.37-1.51,16.64,16.64,0,0,0,.11-2V23.4a1.77,1.77,0,0,0-.13-.69,1.29,1.29,0,0,0-.57-.49,3.22,3.22,0,0,0-.91-.29,6.94,6.94,0,0,0-.9-.12V21h7.39Z" transform="translate(-17.48 -6.85)"/><path class="cls-1" d="M459.18,37.71h-7v-.83a7.89,7.89,0,0,0,1.52-.24c.41-.12.61-.27.61-.44a1,1,0,0,0,0-.25.4.4,0,0,0-.07-.28l-1.39-3.74H447c-.23.54-.4,1-.54,1.43s-.27.79-.38,1.13a7.72,7.72,0,0,0-.2.83,2.26,2.26,0,0,0,0,.52c0,.32.24.56.73.73a6,6,0,0,0,1.68.31v.83H442v-.83a6.69,6.69,0,0,0,.78-.14,3,3,0,0,0,.75-.29,3.16,3.16,0,0,0,.73-.68,4.42,4.42,0,0,0,.51-1c.81-2.1,1.73-4.46,2.78-7.08l2.66-7h.94l5.58,14.44a3,3,0,0,0,.4.75,2.73,2.73,0,0,0,.63.54,2.33,2.33,0,0,0,.7.28,3.7,3.7,0,0,0,.74.13Zm-6.75-6.83-2.53-6.51-2.49,6.51Z" transform="translate(-17.48 -6.85)"/><path class="cls-1" d="M148.17,58.56a7,7,0,0,0-1.52.29,5.15,5.15,0,0,0-1.48.54,2.46,2.46,0,0,0-.85,1.71,17.78,17.78,0,0,0-.22,3.18V82.67h-1.55L127.33,62.12v13a15.24,15.24,0,0,0,.24,3.3,3,3,0,0,0,.84,1.65,4.16,4.16,0,0,0,1.68.74,10.67,10.67,0,0,0,1.68.35v1.21H121.52V81.12a9.61,9.61,0,0,0,1.61-.35,4.34,4.34,0,0,0,1.42-.56,2.47,2.47,0,0,0,.84-1.51,17.61,17.61,0,0,0,.23-3.48V62.9a4.74,4.74,0,0,0-.28-1.63,3.19,3.19,0,0,0-.76-1.21,5.23,5.23,0,0,0-1.73-1,5.94,5.94,0,0,0-1.76-.46V57.4h7.18l14.12,19.15v-12a14.67,14.67,0,0,0-.29-3.37,2.55,2.55,0,0,0-.81-1.56,5.45,5.45,0,0,0-1.62-.65,8.26,8.26,0,0,0-1.71-.36V57.45h10.22Z" transform="translate(-17.48 -6.85)"/><path class="cls-1" d="M161.17,82.43H149.86V81.22l1.38-.11a5.13,5.13,0,0,0,1.28-.22,1.67,1.67,0,0,0,.85-.63,1.91,1.91,0,0,0,.26-1.1V60.92a2.44,2.44,0,0,0-.19-1,1.61,1.61,0,0,0-.92-.7,10.76,10.76,0,0,0-1.34-.39,7.29,7.29,0,0,0-1.32-.23V57.35h11.31v1.21c-.43,0-.87.07-1.3.13a12.12,12.12,0,0,0-1.33.29,1.48,1.48,0,0,0-.91.69,2.63,2.63,0,0,0-.23,1.06V78.86a2.11,2.11,0,0,0,.26,1,1.86,1.86,0,0,0,.88.71,6.3,6.3,0,0,0,1.21.3,7.59,7.59,0,0,0,1.42.2Z" transform="translate(-17.48 -6.85)"/><path class="cls-1" d="M190.1,58.56a7.28,7.28,0,0,0-1.52.29,5.26,5.26,0,0,0-1.48.54,2.46,2.46,0,0,0-.85,1.71,18.75,18.75,0,0,0-.22,3.18V82.67h-1.55L169.27,62.12v13a16.4,16.4,0,0,0,.26,3.35,3.24,3.24,0,0,0,.85,1.65,4.16,4.16,0,0,0,1.68.74,10.67,10.67,0,0,0,1.68.35v1.21h-10.3V81.17a9.68,9.68,0,0,0,1.59-.38,4,4,0,0,0,1.41-.55,2.66,2.66,0,0,0,.86-1.51,19.33,19.33,0,0,0,.23-3.48V62.9a4.74,4.74,0,0,0-.29-1.63,2.9,2.9,0,0,0-.76-1.21,5.33,5.33,0,0,0-1.73-1,6,6,0,0,0-1.75-.46V57.4h7.16l14.2,19.06v-12a14.67,14.67,0,0,0-.29-3.37,2.66,2.66,0,0,0-.81-1.56,5.56,5.56,0,0,0-1.62-.65,8.17,8.17,0,0,0-1.7-.36V57.35h10.21Z" transform="translate(-17.48 -6.85)"/><path class="cls-1" d="M203.1,82.43H191.79V81.22l1.39-.11a5,5,0,0,0,1.27-.22,1.67,1.67,0,0,0,.85-.63,1.84,1.84,0,0,0,.26-1.1V60.92a2.29,2.29,0,0,0-.19-1,1.5,1.5,0,0,0-.92-.7,10.14,10.14,0,0,0-1.33-.39,8.4,8.4,0,0,0-1.33-.23V57.35H203.1v1.21c-.43,0-.87.07-1.3.13a12.12,12.12,0,0,0-1.33.29,1.51,1.51,0,0,0-.91.69,2.63,2.63,0,0,0-.23,1.06V78.86a2.12,2.12,0,0,0,.27,1,1.84,1.84,0,0,0,.87.71,12.46,12.46,0,0,0,2.63.5Z" transform="translate(-17.48 -6.85)"/><path class="cls-1" d="M217.31,83a10.79,10.79,0,0,1-4.3-.89,11.11,11.11,0,0,1-3.62-2.55,12.58,12.58,0,0,1-2.52-4.06,15.19,15.19,0,0,1-.93-5.42,15.63,15.63,0,0,1,.92-5.46,13,13,0,0,1,2.55-4.23,11.26,11.26,0,0,1,3.8-2.71,11.59,11.59,0,0,1,4.68-1,11.22,11.22,0,0,1,3.36.46,12.13,12.13,0,0,1,2.87,1.29l.72-1.21h1.43l.16,9H225a22.72,22.72,0,0,0-.86-2.84,11.29,11.29,0,0,0-1.32-2.59,6.26,6.26,0,0,0-2-1.88,5.1,5.1,0,0,0-2.67-.69,6.82,6.82,0,0,0-3.19.76,7.23,7.23,0,0,0-2.56,2.26,11.22,11.22,0,0,0-1.61,3.62,19.73,19.73,0,0,0-.58,5,15.3,15.3,0,0,0,.61,4.41,11.26,11.26,0,0,0,1.75,3.54,8.48,8.48,0,0,0,2.67,2.42,7.06,7.06,0,0,0,3.46.84,7.39,7.39,0,0,0,2.63-.45,6.81,6.81,0,0,0,2.09-1.2,9.1,9.1,0,0,0,1.56-1.78A9.66,9.66,0,0,0,226,75.49l1.33.63a9.9,9.9,0,0,1-10,6.95Zm2.8-30.21L217.69,54,214,55.82l-.56-.69,2.64-2.54c.67-.66,1.35-1.35,2-2a4.3,4.3,0,0,1,1-.86,2.21,2.21,0,0,1,1-.27,1.75,1.75,0,0,1,1.14.41,1.32,1.32,0,0,1,.49,1,1.61,1.61,0,0,1-.47,1.21,4.21,4.21,0,0,1-1.16.71Z" transform="translate(-17.48 -6.85)"/></svg>